<svg width="2548" height="2548" viewBox="0 0 2548 2548" fill="none" xmlns="http://www.w3.org/2000/svg">
<g clip-path="url(#clip0_404_368)">
<g opacity="0.6" filter="url(#filter0_f_404_368)">
<ellipse cx="1273.5" cy="1274.11" rx="1002.5" ry="1010.11" fill="url(#paint0_linear_404_368)"/>
</g>
<path d="M638.011 1431.92C601.088 1679 783.58 1847.92 965.548 1884.53C1112.62 1913.76 1230.16 1796.84 1221.86 1765.76C1200.93 1686.69 806.657 1458.07 638.011 1431.92ZM1986.47 1431.92C1817.85 1458.07 1423.09 1686.69 1402.16 1765.76C1393.85 1796.84 1511.39 1913.76 1658.47 1884.53C1840.93 1847.92 2023.39 1679 1986.47 1431.92Z" fill="white"/>
<path d="M638.011 1431.92C601.088 1679 783.58 1847.92 965.548 1884.53C1112.62 1913.76 1230.16 1796.84 1221.86 1765.76C1200.93 1686.69 806.657 1458.07 638.011 1431.92ZM1986.47 1431.92C1817.85 1458.07 1423.09 1686.69 1402.16 1765.76C1393.85 1796.84 1511.39 1913.76 1658.47 1884.53C1840.93 1847.92 2023.39 1679 1986.47 1431.92Z" fill="white"/>
<path d="M848.752 744.026L707.147 1245.46C1155.76 1202.46 1473.42 1201.32 1923.15 1245.46L1790.91 744.026C1694.5 546.468 1403.42 741.705 1297.95 744.026C1192.48 746.346 922.039 540.892 848.752 744.026Z" fill="white"/>
<path d="M506.773 1266.37C576.726 1258.56 643.264 1251.59 707.147 1245.46M2117.89 1266.37C2049.99 1258.53 1985.31 1251.56 1923.15 1245.46M707.147 1245.46L848.752 744.026C922.039 540.892 1192.48 746.346 1297.95 744.026C1403.42 741.705 1694.5 546.468 1790.91 744.026L1923.15 1245.46M707.147 1245.46C1155.76 1202.46 1473.42 1201.32 1923.15 1245.46" stroke="white" stroke-width="91.2777" stroke-linecap="round"/>
<path d="M1172.25 1043.37V798.286L1222.68 897.267L1110.46 1043.37H1172.02H1172.25Z" fill="#EAEAEA"/>
<path d="M1284.44 888.901C1284.48 892.055 1284.47 897.286 1284.47 897.286C1353.87 863.815 1435.5 912.112 1435.5 980.627C1435.5 1049.14 1436.07 1122.15 1436.07 1122.15H1372.95V982.876C1372.95 935.699 1284.44 933.452 1284.44 982.876V1043.37H1222.26L1222.68 897.267L1284.44 877.068C1284.44 877.068 1284.4 885.747 1284.44 888.901Z" fill="#EAEAEA"/>
<path d="M1284.44 888.901C1284.48 892.055 1284.47 897.286 1284.47 897.286C1353.87 863.815 1435.5 912.112 1435.5 980.627C1435.5 1049.14 1436.07 1122.15 1436.07 1122.15H1372.95V982.876C1372.95 935.699 1284.44 933.452 1284.44 982.876V1043.37H1222.26L1222.68 897.267L1284.44 877.068C1284.44 877.068 1284.4 885.747 1284.44 888.901Z" fill="#EAEAEA"/>
</g>
<defs>
<filter id="filter0_f_404_368" x="-61.7406" y="-68.7406" width="2670.48" height="2685.69" filterUnits="userSpaceOnUse" color-interpolation-filters="sRGB">
<feFlood flood-opacity="0" result="BackgroundImageFix"/>
<feBlend mode="normal" in="SourceGraphic" in2="BackgroundImageFix" result="shape"/>
<feGaussianBlur stdDeviation="166.37" result="effect1_foregroundBlur_404_368"/>
</filter>
<linearGradient id="paint0_linear_404_368" x1="654.434" y1="481.202" x2="1767.01" y2="2191.36" gradientUnits="userSpaceOnUse">
<stop stop-color="#440E83"/>
<stop offset="0.525" stop-color="#21134D"/>
<stop offset="0.76" stop-color="#013B5B"/>
</linearGradient>
<clipPath id="clip0_404_368">
<rect width="2548" height="2548" fill="white"/>
</clipPath>
</defs>
</svg>
