<svg width="3118" height="3118" viewBox="0 0 3118 3118" fill="none" xmlns="http://www.w3.org/2000/svg">
<g opacity="0.6" filter="url(#filter0_f_404_368)">
<ellipse cx="1558.5" cy="1559.11" rx="1002.5" ry="1010.11" fill="url(#paint0_linear_404_368)"/>
</g>
<path d="M923.011 1716.92C886.088 1964 1068.58 2132.92 1250.55 2169.53C1397.62 2198.76 1515.16 2081.84 1506.86 2050.76C1485.93 1971.69 1091.66 1743.07 923.011 1716.92ZM2271.47 1716.92C2102.85 1743.07 1708.09 1971.69 1687.16 2050.76C1678.85 2081.84 1796.39 2198.76 1943.47 2169.53C2125.93 2132.92 2308.39 1964 2271.47 1716.92Z" fill="white"/>
<path d="M1133.75 1029.03L992.147 1530.46C1440.76 1487.46 1758.42 1486.32 2208.15 1530.46L2075.91 1029.03C1979.5 831.468 1688.42 1026.71 1582.95 1029.03C1477.48 1031.35 1207.04 825.892 1133.75 1029.03Z" fill="white"/>
<path d="M791.773 1551.37C861.726 1543.56 928.264 1536.59 992.147 1530.46M2402.89 1551.37C2334.99 1543.53 2270.31 1536.56 2208.15 1530.46M992.147 1530.46L1133.75 1029.03C1207.04 825.892 1477.48 1031.35 1582.95 1029.03C1688.42 1026.71 1979.5 831.468 2075.91 1029.03L2208.15 1530.46M992.147 1530.46C1440.76 1487.46 1758.42 1486.32 2208.15 1530.46" stroke="white" stroke-width="91.2777" stroke-linecap="round"/>
<path d="M1457.25 1328.37V1083.29L1507.68 1182.27L1395.46 1328.37H1457.02H1457.25Z" fill="#EAEAEA"/>
<path d="M1569.44 1173.9C1569.48 1177.06 1569.47 1182.29 1569.47 1182.29C1638.87 1148.81 1720.5 1197.11 1720.5 1265.63C1720.5 1334.14 1721.07 1407.15 1721.07 1407.15H1657.95V1267.88C1657.95 1220.7 1569.44 1218.45 1569.44 1267.88V1328.37H1507.26L1507.68 1182.27L1569.44 1162.07C1569.44 1162.07 1569.4 1170.75 1569.44 1173.9Z" fill="#EAEAEA"/>
<path d="M1569.44 1173.9C1569.48 1177.06 1569.47 1182.29 1569.47 1182.29C1638.87 1148.81 1720.5 1197.11 1720.5 1265.63C1720.5 1334.14 1721.07 1407.15 1721.07 1407.15H1657.95V1267.88C1657.95 1220.7 1569.44 1218.45 1569.44 1267.88V1328.37H1507.26L1507.68 1182.27L1569.44 1162.07C1569.44 1162.07 1569.4 1170.75 1569.44 1173.9Z" fill="#EAEAEA"/>
<defs>
<filter id="filter0_f_404_368" x="223.259" y="216.259" width="2670.48" height="2685.69" filterUnits="userSpaceOnUse" color-interpolation-filters="sRGB">
<feFlood flood-opacity="0" result="BackgroundImageFix"/>
<feBlend mode="normal" in="SourceGraphic" in2="BackgroundImageFix" result="shape"/>
<feGaussianBlur stdDeviation="166.37" result="effect1_foregroundBlur_404_368"/>
</filter>
<linearGradient id="paint0_linear_404_368" x1="939.434" y1="766.202" x2="2052.01" y2="2476.36" gradientUnits="userSpaceOnUse">
<stop stop-color="#440E83"/>
<stop offset="0.525" stop-color="#21134D"/>
<stop offset="0.76" stop-color="#013B5B"/>
</linearGradient>
</defs>
</svg>
